<mxfile host="app.diagrams.net" modified="2021-10-25T09:11:27.672Z" agent="5.0 (Macintosh; Intel Mac OS X 10_15_7) AppleWebKit/537.36 (KHTML, like Gecko) Chrome/94.0.4606.71 Safari/537.36 Edg/94.0.992.38" etag="tvTctQtiWccOFiGvlrSs" version="15.5.2" type="github">
  <diagram id="C5RBs43oDa-KdzZeNtuy" name="Page-1">
    <mxGraphModel dx="1246" dy="734" grid="1" gridSize="10" guides="1" tooltips="1" connect="1" arrows="1" fold="1" page="1" pageScale="1" pageWidth="827" pageHeight="1169" math="0" shadow="0">
      <root>
        <mxCell id="WIyWlLk6GJQsqaUBKTNV-0" />
        <mxCell id="WIyWlLk6GJQsqaUBKTNV-1" parent="WIyWlLk6GJQsqaUBKTNV-0" />
        <mxCell id="fPr730C0DoxefNkKXyG8-7" style="edgeStyle=orthogonalEdgeStyle;rounded=0;orthogonalLoop=1;jettySize=auto;html=1;fontSize=14;" edge="1" parent="WIyWlLk6GJQsqaUBKTNV-1" source="fPr730C0DoxefNkKXyG8-0" target="fPr730C0DoxefNkKXyG8-1">
          <mxGeometry relative="1" as="geometry" />
        </mxCell>
        <mxCell id="fPr730C0DoxefNkKXyG8-0" value="请求" style="ellipse;whiteSpace=wrap;html=1;" vertex="1" parent="WIyWlLk6GJQsqaUBKTNV-1">
          <mxGeometry x="320" y="130" width="120" height="80" as="geometry" />
        </mxCell>
        <mxCell id="fPr730C0DoxefNkKXyG8-8" style="edgeStyle=orthogonalEdgeStyle;rounded=0;orthogonalLoop=1;jettySize=auto;html=1;entryX=0.5;entryY=0;entryDx=0;entryDy=0;fontSize=14;" edge="1" parent="WIyWlLk6GJQsqaUBKTNV-1" source="fPr730C0DoxefNkKXyG8-1" target="fPr730C0DoxefNkKXyG8-3">
          <mxGeometry relative="1" as="geometry" />
        </mxCell>
        <mxCell id="fPr730C0DoxefNkKXyG8-12" value="是" style="edgeLabel;html=1;align=center;verticalAlign=middle;resizable=0;points=[];fontSize=14;" vertex="1" connectable="0" parent="fPr730C0DoxefNkKXyG8-8">
          <mxGeometry x="-0.35" y="-1" relative="1" as="geometry">
            <mxPoint as="offset" />
          </mxGeometry>
        </mxCell>
        <mxCell id="fPr730C0DoxefNkKXyG8-11" value="否" style="edgeStyle=orthogonalEdgeStyle;rounded=0;orthogonalLoop=1;jettySize=auto;html=1;fontSize=14;" edge="1" parent="WIyWlLk6GJQsqaUBKTNV-1" source="fPr730C0DoxefNkKXyG8-1" target="fPr730C0DoxefNkKXyG8-2">
          <mxGeometry relative="1" as="geometry" />
        </mxCell>
        <mxCell id="fPr730C0DoxefNkKXyG8-1" value="请求日程时间戳 &amp;gt; 日程最后更新时间" style="rhombus;whiteSpace=wrap;html=1;fontSize=14;" vertex="1" parent="WIyWlLk6GJQsqaUBKTNV-1">
          <mxGeometry x="220" y="250" width="320" height="130" as="geometry" />
        </mxCell>
        <mxCell id="fPr730C0DoxefNkKXyG8-2" value="请求无效，给出提示" style="ellipse;whiteSpace=wrap;html=1;fontSize=14;" vertex="1" parent="WIyWlLk6GJQsqaUBKTNV-1">
          <mxGeometry x="620" y="275" width="120" height="80" as="geometry" />
        </mxCell>
        <mxCell id="fPr730C0DoxefNkKXyG8-9" style="edgeStyle=orthogonalEdgeStyle;rounded=0;orthogonalLoop=1;jettySize=auto;html=1;entryX=0.5;entryY=0;entryDx=0;entryDy=0;fontSize=14;" edge="1" parent="WIyWlLk6GJQsqaUBKTNV-1" source="fPr730C0DoxefNkKXyG8-3" target="fPr730C0DoxefNkKXyG8-4">
          <mxGeometry relative="1" as="geometry" />
        </mxCell>
        <mxCell id="fPr730C0DoxefNkKXyG8-3" value="走推送的判断逻辑" style="rounded=0;whiteSpace=wrap;html=1;fontSize=14;" vertex="1" parent="WIyWlLk6GJQsqaUBKTNV-1">
          <mxGeometry x="320" y="420" width="120" height="60" as="geometry" />
        </mxCell>
        <mxCell id="fPr730C0DoxefNkKXyG8-10" style="edgeStyle=orthogonalEdgeStyle;rounded=0;orthogonalLoop=1;jettySize=auto;html=1;fontSize=14;" edge="1" parent="WIyWlLk6GJQsqaUBKTNV-1" source="fPr730C0DoxefNkKXyG8-4" target="fPr730C0DoxefNkKXyG8-6">
          <mxGeometry relative="1" as="geometry" />
        </mxCell>
        <mxCell id="fPr730C0DoxefNkKXyG8-4" value="走日程更新逻辑" style="rounded=0;whiteSpace=wrap;html=1;fontSize=14;" vertex="1" parent="WIyWlLk6GJQsqaUBKTNV-1">
          <mxGeometry x="320" y="524.5" width="120" height="60" as="geometry" />
        </mxCell>
        <mxCell id="fPr730C0DoxefNkKXyG8-6" value="返回响应" style="ellipse;whiteSpace=wrap;html=1;fontSize=14;" vertex="1" parent="WIyWlLk6GJQsqaUBKTNV-1">
          <mxGeometry x="320" y="620" width="120" height="80" as="geometry" />
        </mxCell>
      </root>
    </mxGraphModel>
  </diagram>
</mxfile>
